<mxfile host="app.diagrams.net" modified="2023-02-15T13:03:46.776Z" agent="5.0 (Windows NT 10.0; Win64; x64) AppleWebKit/537.36 (KHTML, like Gecko) Chrome/108.0.0.0 YaBrowser/23.1.2.931 Yowser/2.5 Safari/537.36" etag="pQ1ZIPlKh6ARtXPnp7Dn" version="20.8.20" type="github">
  <diagram id="C5RBs43oDa-KdzZeNtuy" name="Page-1">
    <mxGraphModel dx="471" dy="278" grid="1" gridSize="10" guides="1" tooltips="1" connect="1" arrows="1" fold="1" page="1" pageScale="1" pageWidth="827" pageHeight="1169" math="0" shadow="0">
      <root>
        <mxCell id="WIyWlLk6GJQsqaUBKTNV-0" />
        <mxCell id="WIyWlLk6GJQsqaUBKTNV-1" parent="WIyWlLk6GJQsqaUBKTNV-0" />
        <mxCell id="dKlxZDnbxIGG4tugq2MX-0" value="Start" style="ellipse;whiteSpace=wrap;html=1;" vertex="1" parent="WIyWlLk6GJQsqaUBKTNV-1">
          <mxGeometry x="354" width="120" height="50" as="geometry" />
        </mxCell>
        <mxCell id="dKlxZDnbxIGG4tugq2MX-1" value="" style="endArrow=classic;html=1;rounded=0;exitX=0.5;exitY=1;exitDx=0;exitDy=0;" edge="1" parent="WIyWlLk6GJQsqaUBKTNV-1" source="dKlxZDnbxIGG4tugq2MX-0">
          <mxGeometry width="50" height="50" relative="1" as="geometry">
            <mxPoint x="390" y="340" as="sourcePoint" />
            <mxPoint x="414" y="80" as="targetPoint" />
          </mxGeometry>
        </mxCell>
        <mxCell id="dKlxZDnbxIGG4tugq2MX-2" value="Вводит пользователь:&lt;br&gt;string[] array = {&amp;nbsp;&quot;Hel&quot;, &quot;lo&quot;, &quot;World!&quot;, &quot;:)&quot;, &quot;1121212&quot;, &quot;1124&quot;&amp;nbsp;}&lt;br&gt;int len = 3;" style="shape=parallelogram;perimeter=parallelogramPerimeter;whiteSpace=wrap;html=1;fixedSize=1;" vertex="1" parent="WIyWlLk6GJQsqaUBKTNV-1">
          <mxGeometry x="224" y="80" width="380" height="50" as="geometry" />
        </mxCell>
        <mxCell id="dKlxZDnbxIGG4tugq2MX-4" value="" style="endArrow=classic;html=1;rounded=0;exitX=0.5;exitY=1;exitDx=0;exitDy=0;" edge="1" parent="WIyWlLk6GJQsqaUBKTNV-1" source="dKlxZDnbxIGG4tugq2MX-2">
          <mxGeometry width="50" height="50" relative="1" as="geometry">
            <mxPoint x="440" y="200" as="sourcePoint" />
            <mxPoint x="414" y="160" as="targetPoint" />
          </mxGeometry>
        </mxCell>
        <mxCell id="dKlxZDnbxIGG4tugq2MX-5" value="string[] sortArray;&lt;br&gt;int temp = 0;&amp;nbsp;" style="rounded=0;whiteSpace=wrap;html=1;" vertex="1" parent="WIyWlLk6GJQsqaUBKTNV-1">
          <mxGeometry x="354" y="160" width="120" height="40" as="geometry" />
        </mxCell>
        <mxCell id="dKlxZDnbxIGG4tugq2MX-7" value="" style="endArrow=none;html=1;rounded=0;exitX=0.062;exitY=-0.034;exitDx=0;exitDy=0;exitPerimeter=0;" edge="1" parent="WIyWlLk6GJQsqaUBKTNV-1" source="dKlxZDnbxIGG4tugq2MX-11">
          <mxGeometry width="50" height="50" relative="1" as="geometry">
            <mxPoint x="340" y="221.02" as="sourcePoint" />
            <mxPoint x="340" y="261.02" as="targetPoint" />
            <Array as="points">
              <mxPoint x="320" y="241.02" />
            </Array>
          </mxGeometry>
        </mxCell>
        <mxCell id="dKlxZDnbxIGG4tugq2MX-8" value="" style="endArrow=none;html=1;rounded=0;" edge="1" parent="WIyWlLk6GJQsqaUBKTNV-1">
          <mxGeometry width="50" height="50" relative="1" as="geometry">
            <mxPoint x="500" y="221.02" as="sourcePoint" />
            <mxPoint x="500" y="261.02" as="targetPoint" />
            <Array as="points">
              <mxPoint x="520" y="240" />
            </Array>
          </mxGeometry>
        </mxCell>
        <mxCell id="dKlxZDnbxIGG4tugq2MX-11" value="int i = 0;i &amp;lt; array.Length; i++&amp;nbsp;" style="text;html=1;align=center;verticalAlign=middle;resizable=0;points=[];autosize=1;strokeColor=none;fillColor=none;" vertex="1" parent="WIyWlLk6GJQsqaUBKTNV-1">
          <mxGeometry x="330" y="221.02" width="180" height="30" as="geometry" />
        </mxCell>
        <mxCell id="dKlxZDnbxIGG4tugq2MX-13" value="" style="endArrow=none;html=1;rounded=0;exitX=0.059;exitY=-0.024;exitDx=0;exitDy=0;exitPerimeter=0;entryX=0.944;entryY=-0.002;entryDx=0;entryDy=0;entryPerimeter=0;" edge="1" parent="WIyWlLk6GJQsqaUBKTNV-1" source="dKlxZDnbxIGG4tugq2MX-11" target="dKlxZDnbxIGG4tugq2MX-11">
          <mxGeometry width="50" height="50" relative="1" as="geometry">
            <mxPoint x="360" y="181.02" as="sourcePoint" />
            <mxPoint x="410" y="131.02" as="targetPoint" />
            <Array as="points">
              <mxPoint x="450" y="221.02" />
            </Array>
          </mxGeometry>
        </mxCell>
        <mxCell id="dKlxZDnbxIGG4tugq2MX-14" value="" style="endArrow=none;html=1;rounded=0;" edge="1" parent="WIyWlLk6GJQsqaUBKTNV-1">
          <mxGeometry width="50" height="50" relative="1" as="geometry">
            <mxPoint x="340" y="261.02" as="sourcePoint" />
            <mxPoint x="500" y="261.02" as="targetPoint" />
          </mxGeometry>
        </mxCell>
        <mxCell id="dKlxZDnbxIGG4tugq2MX-16" value="" style="endArrow=classic;html=1;rounded=0;exitX=0.5;exitY=1;exitDx=0;exitDy=0;" edge="1" parent="WIyWlLk6GJQsqaUBKTNV-1" source="dKlxZDnbxIGG4tugq2MX-5">
          <mxGeometry width="50" height="50" relative="1" as="geometry">
            <mxPoint x="240" y="350" as="sourcePoint" />
            <mxPoint x="414" y="220" as="targetPoint" />
          </mxGeometry>
        </mxCell>
        <mxCell id="dKlxZDnbxIGG4tugq2MX-17" value="" style="endArrow=classic;html=1;rounded=0;" edge="1" parent="WIyWlLk6GJQsqaUBKTNV-1">
          <mxGeometry width="50" height="50" relative="1" as="geometry">
            <mxPoint x="413.9" y="260" as="sourcePoint" />
            <mxPoint x="413.77" y="290" as="targetPoint" />
          </mxGeometry>
        </mxCell>
      </root>
    </mxGraphModel>
  </diagram>
</mxfile>
